<svg xmlns="http://www.w3.org/2000/svg" width="120" height="23" fill="none"><path fill="#fff" d="M5.785 22.811c-1.196 0-2.234-.188-3.112-.565-.879-.377-1.55-1.043-2.014-1.998-.44-.956-.659-2.3-.659-4.035v-1.282h3.588v1.584c0 1.055.098 1.872.293 2.45.195.579.464.98.805 1.207.342.201.733.302 1.172.302.708 0 1.27-.239 1.684-.717.44-.502.66-1.432.66-2.79 0-1.005-.147-1.76-.44-2.262-.293-.503-.757-.905-1.391-1.207-.61-.326-1.404-.69-2.38-1.093a9.113 9.113 0 0 1-2.087-1.32C1.318 10.582.879 9.942.586 9.162.293 8.383.146 7.415.146 6.26c0-1.408.171-2.551.513-3.431.366-.905.976-1.559 1.83-1.96C3.345.44 4.492.225 5.932.225c1.855 0 3.27.44 4.247 1.32.976.855 1.465 2.111 1.465 3.77v2.602H8.202V6.372c0-1.156-.184-1.986-.55-2.488-.342-.528-.903-.792-1.684-.792-.806 0-1.391.251-1.758.754-.341.478-.512 1.244-.512 2.3 0 .905.17 1.609.512 2.111.342.478.781.855 1.318 1.132.562.276 1.135.527 1.721.754 1.099.427 1.99.867 2.673 1.32a3.974 3.974 0 0 1 1.501 1.81c.317.753.476 1.822.476 3.204 0 1.584-.256 2.84-.769 3.77a4.297 4.297 0 0 1-2.123 1.961c-.903.402-1.977.604-3.222.604ZM21.19 23c-.83 0-1.598-.063-2.306-.189-.708-.125-1.318-.377-1.83-.754-.513-.377-.916-.942-1.209-1.696-.293-.754-.439-1.773-.439-3.054V.264h3.515v17.985c0 .679.097 1.207.293 1.584.22.352.5.59.842.716.341.126.72.189 1.135.189.415 0 .793-.063 1.135-.189.341-.125.61-.364.805-.716.22-.377.33-.905.33-1.584V.264h3.478v17.005c0 1.282-.147 2.312-.44 3.092-.268.754-.659 1.32-1.171 1.696-.513.377-1.123.629-1.83.755A13.21 13.21 0 0 1 21.19 23ZM31.265 22.547V.264h7.322c1.367 0 2.417.314 3.149.943.732.628 1.098 1.558 1.098 2.79v3.959c0 .955-.122 1.847-.366 2.677a3.59 3.59 0 0 1-1.318 1.96c-.634.503-1.562.755-2.782.755h-3.442v9.2h-3.661Zm3.661-11.236h2.233c.733 0 1.282-.289 1.648-.867.366-.603.55-1.57.55-2.903V5.543c0-1.182-.16-2.024-.477-2.527-.317-.502-.757-.754-1.318-.754h-2.636v9.05ZM46.299 22.547V.264h9.739v2.564H49.96v6.75h5.016v2.827H49.96v7.654h6.078v2.488h-9.74ZM59.366 22.547V.264h7.469c1.367 0 2.416.314 3.149.943.756.628 1.135 1.558 1.135 2.79V7.54c0 1.232-.33 2.237-.989 3.016-.659.755-1.635 1.17-2.929 1.245.83.075 1.416.352 1.758.83.366.477.695 1.218.988 2.224l2.087 7.691h-3.88l-1.722-7.427a10.7 10.7 0 0 0-.585-1.66c-.22-.477-.574-.716-1.062-.716H62.99v9.803h-3.625Zm3.625-12.329h2.343c.854 0 1.452-.226 1.794-.679.366-.452.55-1.143.55-2.073V4.638c0-.83-.172-1.433-.513-1.81-.318-.377-.818-.566-1.502-.566h-2.672v7.956ZM79.869 22.962c-.83 0-1.611-.138-2.344-.415-.732-.25-1.33-.766-1.794-1.545-.439-.805-.658-1.999-.658-3.582V4.977c0-1.357.244-2.388.732-3.092.488-.729 1.171-1.219 2.05-1.47C78.734.138 79.747 0 80.894 0c1.147 0 2.16.138 3.039.415.878.276 1.562.779 2.05 1.508.513.704.769 1.722.769 3.054v3.016h-3.405V4.826c0-.754-.11-1.32-.33-1.696-.195-.378-.476-.629-.842-.755-.341-.125-.756-.188-1.245-.188a3.7 3.7 0 0 0-1.208.188c-.366.126-.659.377-.878.755-.196.377-.293.942-.293 1.696v13.386c0 .754.097 1.32.293 1.696.22.377.512.629.878.754a3.7 3.7 0 0 0 1.209.189c.707 0 1.28-.214 1.72-.641.464-.453.696-1.119.696-1.998v-4.525h-2.16v-2.074h5.565v10.934h-2.636l-.183-1.885c-.05.1-.11.214-.183.34-.074.1-.135.188-.183.264-.293.452-.733.854-1.318 1.206-.562.327-1.355.49-2.38.49ZM93.393 22.547V12.97L89.366.264h3.478l2.27 7.616.183 1.17.22-1.17 2.38-7.616h3.258l-4.247 12.895v9.388h-3.515ZM104.11 22.547V.264h4.321l3.624 15.836L115.716.264H120v22.283h-3.112V5.354l-3.625 17.194h-2.416l-3.625-17.194v17.194h-3.112Z"/></svg>